<svg width="330" height="328" viewBox="0 0 330 328" fill="none" xmlns="http://www.w3.org/2000/svg">
<g clip-path="url(#clip0_28_33)" filter="url(#filter0_d_28_33)">
<path d="M202.023 98.625H127.977C120.557 98.625 113.441 101.573 108.194 106.819C102.948 112.066 100 119.182 100 126.602V197.398C100 204.818 102.948 211.934 108.194 217.181C113.441 222.427 120.557 225.375 127.977 225.375H202.023C209.443 225.375 216.559 222.427 221.806 217.181C227.052 211.934 230 204.818 230 197.398V126.602C230 119.182 227.052 112.066 221.806 106.819C216.559 101.573 209.443 98.625 202.023 98.625ZM168.949 187.951H156.561C155.694 187.951 155.077 187.919 154.73 187.339C153.565 185.07 152.401 182.816 151.242 180.579C150.043 178.277 148.808 175.995 147.537 173.732C146.216 171.391 144.921 169.034 143.653 166.664H143.566C142.392 169.006 141.186 171.332 139.948 173.64C138.702 175.964 137.462 178.277 136.243 180.574C135.025 182.872 133.778 185.155 132.5 187.42C132.262 187.946 131.855 188 131.27 188H119.327C119.094 188 118.964 188.092 118.937 187.859C118.905 187.646 118.951 187.429 119.067 187.247L135.896 159.595L119.5 131.872C119.321 131.64 119.294 131.45 119.413 131.293C119.477 131.218 119.559 131.159 119.65 131.121C119.741 131.083 119.84 131.068 119.939 131.076H132.235C132.503 131.065 132.77 131.109 133.02 131.206C133.228 131.326 133.405 131.49 133.54 131.688C134.585 134.017 135.75 136.341 137.028 138.665C138.307 140.989 139.601 143.285 140.907 145.555C142.212 147.825 143.42 150.121 144.525 152.445H144.612C145.765 150.062 146.941 147.738 148.143 145.468C149.346 143.199 150.565 140.918 151.805 138.622C153.056 136.32 154.259 134.034 155.423 131.775C155.488 131.557 155.607 131.36 155.77 131.201C155.986 131.093 156.228 131.048 156.469 131.071H167.893C168.021 131.04 168.157 131.06 168.27 131.128C168.384 131.196 168.466 131.306 168.499 131.434C168.522 131.526 168.518 131.622 168.489 131.713C168.459 131.803 168.404 131.882 168.331 131.943L168.337 131.965L152.114 158.739L169.469 187.171C169.582 187.372 169.61 187.605 169.555 187.827C169.501 188.022 169.301 187.892 168.949 187.951ZM210.554 185.676C207.719 186.857 204.767 187.734 201.747 188.293C198.983 188.806 196.178 189.069 193.367 189.078C189.354 189.137 185.379 188.304 181.727 186.64C178.324 185.065 175.48 182.494 173.569 179.268C171.469 175.504 170.443 171.236 170.601 166.929C170.569 162.926 171.592 158.986 173.569 155.505C175.606 151.96 178.6 149.059 182.209 147.137C186.769 144.753 191.901 143.681 197.034 144.038C197.5 144.065 198.052 144.109 198.692 144.168V126.987C198.692 126.58 198.865 126.375 199.217 126.375H210.202C210.324 126.358 210.448 126.39 210.546 126.464C210.645 126.538 210.71 126.648 210.727 126.77C210.733 126.813 210.733 126.857 210.727 126.9V178.45C210.727 179.442 210.771 180.514 210.857 181.679C210.944 182.838 211.02 183.883 211.074 184.815C211.085 184.994 211.042 185.173 210.949 185.327C210.856 185.481 210.718 185.603 210.554 185.676ZM197.245 154.195C197.733 154.243 198.215 154.33 198.686 154.455V178.261C198.062 178.447 197.419 178.563 196.769 178.607C196.014 178.668 195.257 178.697 194.499 178.694C192.973 178.701 191.455 178.465 190.003 177.995C188.63 177.563 187.377 176.818 186.342 175.818C185.262 174.73 184.429 173.422 183.899 171.983C183.25 170.194 182.939 168.301 182.983 166.398C182.869 163.974 183.492 161.572 184.771 159.508C185.925 157.797 187.501 156.415 189.348 155.495C191.244 154.557 193.335 154.075 195.452 154.097C196.054 154.108 196.65 154.135 197.245 154.195Z" fill="white"/>
</g>
<defs>
<filter id="filter0_d_28_33" x="0" y="-1" width="330" height="330" filterUnits="userSpaceOnUse" color-interpolation-filters="sRGB">
<feFlood flood-opacity="0" result="BackgroundImageFix"/>
<feColorMatrix in="SourceAlpha" type="matrix" values="0 0 0 0 0 0 0 0 0 0 0 0 0 0 0 0 0 0 127 0" result="hardAlpha"/>
<feOffset dy="2"/>
<feGaussianBlur stdDeviation="50"/>
<feColorMatrix type="matrix" values="0 0 0 0 1 0 0 0 0 1 0 0 0 0 1 0 0 0 0.4 0"/>
<feBlend mode="normal" in2="BackgroundImageFix" result="effect1_dropShadow_28_33"/>
<feBlend mode="normal" in="SourceGraphic" in2="effect1_dropShadow_28_33" result="shape"/>
</filter>
<clipPath id="clip0_28_33">
<rect width="130" height="130" fill="white" transform="translate(100 97)"/>
</clipPath>
</defs>
</svg>
