<svg width="330" height="330" viewBox="0 0 330 330" fill="none" xmlns="http://www.w3.org/2000/svg">
<g clip-path="url(#clip0_28_29)" filter="url(#filter0_d_28_29)">
<path d="M165 98C129.104 98 100 127.104 100 163C100 198.896 129.104 228 165 228C200.896 228 230 198.896 230 163C230 127.104 200.896 98 165 98ZM137.711 139.6C141.795 139.6 144.953 142.574 145.321 146.1C145.695 149.258 144.395 152.042 140.869 153.716C139.011 154.642 138.269 154.647 137.895 154.09C137.711 153.716 137.895 153.347 138.269 152.974C141.611 150.19 141.611 147.958 141.237 144.805C141.053 142.758 139.569 141.458 138.079 141.458C131.579 141.458 122.295 155.942 123.595 166.532C124.153 170.616 126.569 175.448 131.769 175.448C133.437 175.448 135.29 174.89 136.969 174.147C139.677 172.717 141.297 171.602 142.911 169.814C142.515 165.02 146.724 158.732 152.937 158.732C155.727 158.732 157.953 159.842 158.137 161.89C158.505 164.674 156.095 165.042 155.353 165.042C154.611 165.042 153.305 164.858 153.305 164.121C153.121 163.374 154.979 163.742 154.795 162.074C154.605 160.958 153.495 160.59 152.379 160.59C148.479 160.59 146.253 165.974 146.805 169.316C146.995 170.805 147.737 172.29 149.227 172.29C150.337 172.29 152.011 170.61 152.569 168.2C152.937 166.532 154.427 165.416 155.727 165.416C156.279 165.416 156.647 165.6 156.837 166.342V167.09C156.653 167.832 156.095 170.058 156.285 170.616C156.285 170.99 156.469 171.542 157.205 171.542C157.704 171.542 159.567 170.567 161.414 169.056C162.048 165.86 162.785 162.025 162.785 161.705C162.969 160.405 163.527 159.105 166.127 159.105C166.685 159.105 167.053 159.29 167.237 160.032V160.779L166.5 164.121C168.911 160.963 172.442 158.737 174.669 158.737C175.6 158.737 176.342 159.29 176.342 160.221C176.342 160.779 176.342 161.705 175.969 162.637C175.227 164.679 174.295 167.837 173.737 170.621C173.737 171.363 173.927 172.105 174.858 172.105C175.785 172.105 178.569 170.99 180.795 168.021L180.833 168C180.822 167.631 180.795 167.274 180.795 166.905C180.795 164.679 180.985 162.821 181.358 161.521C181.727 160.037 183.585 158.737 184.7 158.737C185.258 158.737 185.811 159.111 185.811 159.663C185.811 159.853 185.811 160.221 185.627 160.405C184.885 162.821 184.327 165.048 184.327 167.279C184.327 168.579 184.511 170.432 184.879 171.548C184.879 171.732 185.069 171.921 185.258 171.921C185.627 171.921 188.227 169.511 190.079 166.353C188.411 165.237 187.479 163.379 187.479 161.153C187.479 157.253 189.895 155.211 192.127 155.211C193.985 155.211 195.469 156.511 195.469 159.111C195.469 160.779 194.911 162.632 193.985 164.311H194.537C195.126 164.33 195.713 164.224 196.258 164C196.803 163.776 197.295 163.439 197.7 163.011C197.871 162.729 198.124 162.508 198.426 162.377C200.241 160.075 202.922 158.369 206.064 158.369C208.664 158.369 211.069 159.479 211.258 161.521C211.627 164.311 209.211 164.869 208.469 164.869L208.458 164.858C207.71 164.858 206.416 164.668 206.416 163.926C206.416 163.184 208.09 163.558 207.9 161.89C207.716 160.774 206.6 160.4 205.484 160.4C201.768 160.4 199.363 165.226 199.916 169.126C200.1 170.616 200.842 172.284 202.326 172.284C203.442 172.284 205.116 170.616 205.858 168.2C206.226 166.716 207.716 165.416 209.016 165.416C209.574 165.416 209.937 165.6 210.126 166.342C210.126 166.716 210.126 167.458 209.384 169.874C208.463 171.542 208.458 172.474 208.642 173.216C208.826 174.7 209.568 175.816 210.316 176.374C210.5 176.558 210.684 176.926 210.684 176.926C210.684 177.3 210.5 177.674 209.942 177.674C209.758 177.674 209.574 177.674 209.384 177.484C206.6 176.374 205.484 174.516 205.11 172.658C204 173.958 202.7 174.7 201.21 174.7C198.8 174.7 196.39 172.474 196.01 169.684C195.904 168.497 196.042 167.3 196.417 166.169C195.317 166.873 194.131 167.268 193.042 167.268H192.121C189.7 170.8 187.1 173.216 185.242 174.326C184.611 174.662 183.914 174.854 183.2 174.89C182.832 174.89 182.274 174.7 182.09 174.326C181.575 173.503 181.245 172.203 181.044 170.713C178.439 173.568 174.842 175.074 173.174 175.074C171.316 175.074 170.205 173.958 170.021 172.095V170.058C170.574 165.974 172.063 163.558 172.063 162.816C172.058 162.718 172.017 162.625 171.949 162.555C171.88 162.485 171.787 162.443 171.69 162.437C170.39 162.437 166.121 166.9 165.374 169.874L164.816 172.284C164.447 173.958 162.774 175.074 161.663 175.074C161.105 175.074 160.732 174.884 160.548 174.142V173.4L160.797 172.138C158.44 173.817 156.084 174.89 154.974 174.89C153.305 174.89 152.374 173.958 152.19 172.658C151.074 174.142 149.779 174.89 148.105 174.89C146.199 174.89 144.335 173.59 143.436 171.677C142.115 173.167 140.603 174.673 138.821 175.816C136.221 177.49 133.253 178.79 129.721 178.79C126.569 178.79 123.779 177.116 122.295 175.632C120.063 173.59 118.769 170.432 118.579 167.458C117.469 158.358 123.037 146.658 131.579 141.458C133.627 140.347 135.669 139.6 137.711 139.6ZM190.632 157.426C190.068 157.426 189.7 158.358 189.7 159.284C189.7 160.768 190.442 162.442 191.374 163.374C191.737 162.36 191.924 161.292 191.926 160.216C191.926 158.358 191.19 157.426 190.632 157.426Z" fill="white"/>
</g>
<defs>
<filter id="filter0_d_28_29" x="0" y="0" width="330" height="330" filterUnits="userSpaceOnUse" color-interpolation-filters="sRGB">
<feFlood flood-opacity="0" result="BackgroundImageFix"/>
<feColorMatrix in="SourceAlpha" type="matrix" values="0 0 0 0 0 0 0 0 0 0 0 0 0 0 0 0 0 0 127 0" result="hardAlpha"/>
<feOffset dy="2"/>
<feGaussianBlur stdDeviation="50"/>
<feColorMatrix type="matrix" values="0 0 0 0 1 0 0 0 0 1 0 0 0 0 1 0 0 0 0.4 0"/>
<feBlend mode="normal" in2="BackgroundImageFix" result="effect1_dropShadow_28_29"/>
<feBlend mode="normal" in="SourceGraphic" in2="effect1_dropShadow_28_29" result="shape"/>
</filter>
<clipPath id="clip0_28_29">
<rect width="130" height="130" fill="white" transform="translate(100 98)"/>
</clipPath>
</defs>
</svg>
