<svg width="225" height="168" viewBox="0 0 225 168" fill="none" xmlns="http://www.w3.org/2000/svg">
<g filter="url(#filter0_d_39_34)">
<path d="M50.1729 73.3418C50.2809 74.7572 51.4489 75.8627 52.8703 75.8627C54.2917 75.8627 55.4596 74.7572 55.5677 73.3502V73.3418V67.2992C55.5012 65.8504 54.3208 64.6988 52.8703 64.6988C51.4198 64.6988 50.2394 65.8504 50.1729 67.2951V67.2992V73.3418ZM65.1104 73.3418C65.2351 74.7446 66.3989 75.8334 67.812 75.8334C69.2251 75.8334 70.3889 74.7446 70.5136 73.3502V73.3376V59.7911C70.4471 58.3422 69.2667 57.1906 67.8162 57.1906C66.3656 57.1906 65.1853 58.3422 65.1188 59.7869V73.3376L65.1104 73.3418ZM79.9732 78.8023C80.0397 80.2512 81.2201 81.4027 82.6706 81.4027C84.1211 81.4027 85.3015 80.2512 85.368 78.8065V78.8023V49.494C85.3015 48.0451 84.1211 46.8936 82.6706 46.8936C81.2201 46.8936 80.0397 48.0451 79.9732 49.4898V49.494V78.8023ZM94.9648 73.3418C95.0313 74.7907 96.2117 75.9422 97.6622 75.9422C99.1127 75.9422 100.293 74.7907 100.36 73.346V73.3418V59.7952C100.293 58.3464 99.1127 57.1948 97.6622 57.1948C96.2117 57.1948 95.0313 58.3464 94.9648 59.7911V59.7952V73.3418ZM109.873 73.3418C110.015 74.7321 111.166 75.8041 112.571 75.8041C113.975 75.8041 115.131 74.7279 115.268 73.3502V73.3376V67.2951C115.202 65.8462 114.021 64.6946 112.571 64.6946C111.12 64.6946 109.94 65.8462 109.873 67.2909V73.3418ZM124.927 73.3418C125.019 74.7739 126.191 75.9004 127.629 75.9004C129.067 75.9004 130.239 74.7739 130.33 73.3502V73.3418V59.7952C130.264 58.3464 129.083 57.1948 127.633 57.1948C126.182 57.1948 125.002 58.3464 124.936 59.7911V59.7952V73.3418H124.927ZM139.669 78.8023C139.777 80.2177 140.945 81.3232 142.367 81.3232C143.788 81.3232 144.956 80.2177 145.064 78.8107V78.8023V49.494C144.998 48.0451 143.817 46.8936 142.367 46.8936C140.916 46.8936 139.736 48.0451 139.669 49.4898V49.494V78.8023ZM154.657 73.3418C154.769 74.7572 155.937 75.8669 157.358 75.8669C158.78 75.8669 159.952 74.7614 160.06 73.3502V73.3418V59.7952C159.969 58.3631 158.796 57.2367 157.358 57.2367C155.92 57.2367 154.748 58.3631 154.657 59.7869V59.7952V73.3418ZM169.428 73.3418C169.495 74.7907 170.675 75.9422 172.126 75.9422C173.576 75.9422 174.756 74.7907 174.823 73.346V73.3418V67.2992C174.756 65.8504 173.576 64.6988 172.126 64.6988C170.675 64.6988 169.495 65.8504 169.428 67.2951V67.2992V73.3418ZM140.663 101.779C140.763 108.039 145.825 113.077 152.051 113.077C152.924 113.077 153.772 112.976 154.586 112.792L154.511 112.805C159.694 111.791 163.555 107.252 163.555 101.808C163.555 97.7507 161.411 94.1956 158.202 92.2316L158.152 92.2023C156.44 91.1177 154.358 90.4771 152.126 90.4771C145.883 90.4771 140.804 95.5062 140.667 101.767V101.779H140.663ZM148.58 97.3111C149.553 96.5071 150.808 96.0213 152.176 96.0213C155.318 96.0213 157.865 98.5882 157.865 101.754C157.865 103.542 157.051 105.142 155.779 106.193L155.771 106.201L155.683 106.272C154.736 107.013 153.526 107.457 152.217 107.457C149.075 107.457 146.523 104.89 146.523 101.72C146.523 99.9492 147.321 98.3663 148.572 97.3152L148.58 97.3069V97.3111ZM85.4137 112.675H90.8667V90.8707H85.4137V112.675ZM98.269 107.466L98.2482 112.474L98.6098 112.537C99.5741 112.729 100.759 112.889 101.956 112.976L102.055 112.981C102.637 113.039 103.315 113.073 104 113.073C104.387 113.073 104.774 113.06 105.16 113.039L105.106 113.043C106.158 112.964 107.13 112.767 108.061 112.474L107.97 112.499C109.113 112.168 110.106 111.616 110.946 110.895L110.933 110.904C111.698 110.242 112.288 109.4 112.65 108.446L112.662 108.404C112.949 107.671 113.119 106.825 113.119 105.937C113.119 105.016 112.941 104.137 112.612 103.333L112.629 103.379C112.28 102.516 111.752 101.792 111.087 101.218L111.079 101.21C110.443 100.636 109.682 100.179 108.851 99.8906L108.805 99.878L105.056 98.4752C104.607 98.2784 104.25 97.935 104.038 97.5037L104.034 97.4911C103.963 97.3362 103.922 97.1519 103.922 96.9593C103.922 96.7332 103.98 96.5238 104.079 96.3396L104.075 96.3479C104.271 96.0297 104.541 95.7784 104.865 95.6109L104.877 95.6067C105.264 95.4141 105.717 95.2759 106.191 95.2215H106.212C106.544 95.1712 106.931 95.1419 107.325 95.1419C107.779 95.1419 108.219 95.1796 108.647 95.255L108.601 95.2466C109.653 95.3639 110.592 95.5397 111.507 95.7784L111.37 95.7491L111.565 95.791V91.168L111.207 91.0884C110.439 90.8916 109.483 90.7116 108.506 90.5943L108.385 90.5817C107.812 90.5022 107.147 90.4561 106.469 90.4561C105.838 90.4561 105.214 90.498 104.603 90.5734L104.678 90.565C103.049 90.7199 101.586 91.3481 100.397 92.3028L100.414 92.2902C99.599 92.9393 98.9714 93.7977 98.6015 94.7818L98.589 94.8195C98.3314 95.5188 98.1817 96.327 98.1817 97.1729C98.1817 98.0187 98.3314 98.8269 98.6057 99.5723L98.589 99.5221C98.8841 100.305 99.3289 100.971 99.8941 101.515H99.8983C100.389 101.993 100.95 102.403 101.557 102.73L101.598 102.751C102.338 103.157 103.194 103.504 104.096 103.751L104.179 103.772C104.474 103.86 104.769 103.957 105.06 104.053L105.501 104.216L105.626 104.266C106.083 104.434 106.473 104.681 106.802 104.999C107.03 105.213 107.209 105.477 107.321 105.774L107.325 105.787C107.359 105.916 107.38 106.063 107.38 106.218C107.38 106.364 107.363 106.507 107.325 106.641L107.33 106.628C107.184 107.08 106.877 107.445 106.478 107.658L106.469 107.663C106.054 107.88 105.572 108.039 105.064 108.111L105.04 108.115C104.553 108.194 103.988 108.24 103.414 108.24C103.207 108.24 102.999 108.236 102.791 108.224H102.82C101.719 108.136 100.73 107.998 99.7569 107.809L99.9274 107.838C99.4286 107.73 98.9312 107.612 98.4353 107.487L98.269 107.466ZM77.8868 112.294V106.482L77.7745 106.532C76.5609 107.139 75.1395 107.52 73.6391 107.591H73.6141C73.4728 107.604 73.3066 107.608 73.1403 107.608C71.7397 107.608 70.4471 107.135 69.4122 106.339L69.4288 106.352C68.5892 105.694 67.9533 104.807 67.6167 103.785L67.6042 103.747C67.4047 103.161 67.2925 102.487 67.2925 101.783C67.2925 101.239 67.359 100.715 67.4878 100.213L67.4795 100.255C67.758 99.0447 68.4188 98.0187 69.3249 97.2859L69.3332 97.2776C70.127 96.6034 71.1287 96.1469 72.2259 96.0129L72.2509 96.0087C72.5709 95.9711 72.945 95.9501 73.319 95.9501C74.9441 95.9501 76.4736 96.3563 77.8119 97.0724L77.7579 97.0472L77.8826 97.1142V91.2685L77.6166 91.1973C76.2658 90.7492 74.7114 90.4896 73.0988 90.4896C72.8411 90.4896 72.5834 90.498 72.3299 90.5106H72.3673C70.659 90.5566 69.0547 90.9461 67.6 91.6202L67.6749 91.5867C66.1454 92.3028 64.8611 93.3162 63.8469 94.5557L63.8303 94.5724C62.28 96.5364 61.3407 99.0531 61.3407 101.792C61.3407 104.405 62.1969 106.817 63.6391 108.76L63.6184 108.73C65.1271 110.669 67.2301 112.076 69.6532 112.671L69.728 112.688C70.7422 112.947 71.9101 113.098 73.1112 113.098C74.6615 113.098 76.1536 112.847 77.5543 112.386L77.4545 112.415L77.8868 112.294ZM134.994 112.294V106.482L134.881 106.532C133.668 107.139 132.246 107.52 130.746 107.591H130.721C130.58 107.604 130.418 107.608 130.251 107.608C128.847 107.608 127.554 107.135 126.519 106.339L126.536 106.352C125.696 105.694 125.06 104.807 124.719 103.785L124.707 103.747C124.512 103.165 124.399 102.491 124.399 101.792C124.399 101.247 124.466 100.715 124.595 100.213L124.586 100.255C124.869 99.0447 125.53 98.0187 126.432 97.2859L126.44 97.2776C127.234 96.6034 128.236 96.1469 129.333 96.0129L129.358 96.0087C129.678 95.9711 130.052 95.9501 130.426 95.9501C132.051 95.9501 133.581 96.3563 134.919 97.0724L134.865 97.0472L134.989 97.1142V91.2685L134.723 91.1973C133.373 90.7492 131.818 90.4896 130.206 90.4896C129.948 90.4896 129.69 90.498 129.437 90.5106H129.474C127.766 90.5566 126.162 90.9461 124.707 91.6202L124.782 91.5867C123.252 92.3028 121.972 93.312 120.958 94.5557L120.941 94.5766C119.387 96.5406 118.452 99.0531 118.452 101.792C118.452 104.409 119.308 106.821 120.758 108.764L120.738 108.735C122.246 110.673 124.349 112.076 126.764 112.675L126.839 112.692C127.853 112.951 129.021 113.102 130.222 113.102C131.773 113.102 133.265 112.851 134.665 112.39L134.566 112.42L134.989 112.298L134.994 112.294Z" fill="white"/>
</g>
<defs>
<filter id="filter0_d_39_34" x="-4" y="-33" width="233" height="234" filterUnits="userSpaceOnUse" color-interpolation-filters="sRGB">
<feFlood flood-opacity="0" result="BackgroundImageFix"/>
<feColorMatrix in="SourceAlpha" type="matrix" values="0 0 0 0 0 0 0 0 0 0 0 0 0 0 0 0 0 0 127 0" result="hardAlpha"/>
<feOffset dy="4"/>
<feGaussianBlur stdDeviation="25"/>
<feColorMatrix type="matrix" values="0 0 0 0 1 0 0 0 0 1 0 0 0 0 1 0 0 0 0.8 0"/>
<feBlend mode="normal" in2="BackgroundImageFix" result="effect1_dropShadow_39_34"/>
<feBlend mode="normal" in="SourceGraphic" in2="effect1_dropShadow_39_34" result="shape"/>
</filter>
</defs>
</svg>
