<svg width="294" height="330" viewBox="0 0 294 330" fill="none" xmlns="http://www.w3.org/2000/svg">
<g filter="url(#filter0_d_26_12)">
<path d="M133.813 109.853V115.443H119.518V98.1272H133.813V104.254H125.644V109.853H133.813ZM148.508 104.254H154.219V98.1272H139.922C139.922 98.1272 139.922 101.203 139.922 104.254C141.835 106.167 142.832 107.082 145.599 109.849C143.982 109.849 139.922 109.854 139.922 109.854V115.443H154.219V109.853L148.508 104.254ZM168.771 104.254H174.482V98.1272H160.185C160.185 98.1272 160.185 101.203 160.185 104.254C162.098 106.167 163.095 107.082 165.861 109.849C164.245 109.849 160.185 109.854 160.185 109.854V115.443H174.482V109.853L168.771 104.254ZM193.311 123.673L184.627 217.742L147 227.873L109.372 217.742L100.689 123.673H193.311ZM175.813 142.8H146.966H117.609L119.013 154.16H146.966H148.536L146.966 154.813L120.035 166.03L120.928 177.133L146.966 177.218L160.921 177.262L160.027 192.068L146.966 195.746V195.734L146.859 195.763L134.243 192.579L133.478 183.389H133.436H121.735H121.694L123.225 201.131L146.966 208.151V208.138L147.008 208.151L170.622 201.258L173.686 166.03H146.966H146.9L146.966 166.002L174.663 154.16L175.813 142.8Z" fill="white"/>
</g>
<defs>
<filter id="filter0_d_26_12" x="-18" y="0" width="330" height="330" filterUnits="userSpaceOnUse" color-interpolation-filters="sRGB">
<feFlood flood-opacity="0" result="BackgroundImageFix"/>
<feColorMatrix in="SourceAlpha" type="matrix" values="0 0 0 0 0 0 0 0 0 0 0 0 0 0 0 0 0 0 127 0" result="hardAlpha"/>
<feOffset dy="2"/>
<feGaussianBlur stdDeviation="50"/>
<feColorMatrix type="matrix" values="0 0 0 0 1 0 0 0 0 1 0 0 0 0 1 0 0 0 0.4 0"/>
<feBlend mode="normal" in2="BackgroundImageFix" result="effect1_dropShadow_26_12"/>
<feBlend mode="normal" in="SourceGraphic" in2="effect1_dropShadow_26_12" result="shape"/>
</filter>
</defs>
</svg>
