<svg width="130" height="130" viewBox="0 0 130 130" fill="none" xmlns="http://www.w3.org/2000/svg">
<path d="M105.284 32.179C97.6422 41.2547 87.8597 48.2869 76.704 52.5281L76.2247 52.6865C77.4434 55.1728 78.6094 57.6875 79.6778 60.2306C80.084 61.1447 80.4375 62.0587 80.795 62.92C84.5609 62.5056 88.9322 62.27 93.3562 62.27C101.737 62.27 109.919 63.115 117.825 64.7278L117.041 64.5937C116.959 52.2437 112.543 40.9459 105.243 32.1181L105.312 32.2034L105.284 32.179ZM52.8165 14.499C59.2962 23.2334 65.719 33.1865 71.4959 43.55L72.219 44.9597C83.2365 41.2709 92.4869 34.7587 99.4134 26.2722L99.4987 26.1665C90.3703 18.0172 78.26 13.0365 64.9919 13.0365C60.6734 13.0365 56.4769 13.5647 52.4631 14.56L52.8206 14.4869L52.8165 14.499ZM14.0562 54.4172C31.1959 54.3278 47.7547 52.0203 63.5212 47.7709L62.1684 48.0797C55.4572 36.3025 49.079 26.4753 42.2134 17.0259L42.8756 17.9847C28.2669 24.9762 17.5784 38.159 14.1253 54.0394L14.0644 54.3847L14.0562 54.4172ZM26.3412 99.8765C36.1725 84.1059 50.7569 72.0931 68.0672 65.719L68.64 65.5362C69.3265 65.3087 70.009 65.1097 70.6956 64.9269C69.3753 61.9572 67.9534 59.0037 66.4706 56.095C50.6756 60.7831 32.5284 63.4847 13.7515 63.4847C13.4834 63.4847 13.2194 63.4847 12.9553 63.4847H12.9959L12.9756 65.069C12.9756 65.0812 12.9756 65.0934 12.9756 65.1056C12.9756 78.4997 18.0537 90.7075 26.3859 99.9131L26.3453 99.8684L26.3412 99.8765ZM85.3328 112.974C82.5622 97.9469 78.7109 84.7112 73.7019 72.0647L74.2137 73.5312L73.8806 73.6328C56.355 79.1009 42.0875 90.6628 33.2475 105.787L33.0647 106.125C41.7787 112.982 52.91 117.122 65.0081 117.122C72.3409 117.122 79.3162 115.602 85.6375 112.86L85.3003 112.99L85.3328 112.974ZM116.374 73.3362C109.992 71.4106 102.659 70.3015 95.0665 70.3015C91.1503 70.3015 87.3031 70.5981 83.5453 71.1669L83.9678 71.114C87.949 81.5303 91.4509 93.9818 93.864 106.819L94.0834 108.217C105.759 100.254 113.961 87.9328 116.354 73.645L116.395 73.3403L116.374 73.3362ZM65 125.921C31.3544 125.921 4.07874 98.6456 4.07874 65C4.07874 31.3544 31.3544 4.07874 65 4.07874C98.6456 4.07874 125.921 31.3544 125.921 65C125.877 98.6253 98.6253 125.872 65 125.921Z" fill="white"/>
</svg>
