<svg width="20" height="20" viewBox="0 0 20 20" fill="none" xmlns="http://www.w3.org/2000/svg">
<g clip-path="url(#clip0_32_96)">
<path d="M16.1975 4.95057C15.0219 6.34682 13.5169 7.42869 11.8006 8.08119L11.7269 8.10557C11.9144 8.48807 12.0938 8.87494 12.2581 9.26619C12.3206 9.40682 12.375 9.54744 12.43 9.67994C13.0094 9.61619 13.6819 9.57994 14.3625 9.57994C15.6519 9.57994 16.9106 9.70994 18.1269 9.95807L18.0063 9.93744C17.9938 8.03744 17.3144 6.29932 16.1913 4.94119L16.2019 4.95432L16.1975 4.95057ZM8.12563 2.23057C9.1225 3.57432 10.1106 5.10557 10.9994 6.69994L11.1106 6.91682C12.8056 6.34932 14.2288 5.34744 15.2944 4.04182L15.3075 4.02557C13.9031 2.77182 12.04 2.00557 9.99875 2.00557C9.33438 2.00557 8.68875 2.08682 8.07125 2.23994L8.12625 2.22869L8.12563 2.23057ZM2.1625 8.37182C4.79938 8.35807 7.34688 8.00307 9.7725 7.34932L9.56438 7.39682C8.53188 5.58494 7.55063 4.07307 6.49438 2.61932L6.59625 2.76682C4.34875 3.84244 2.70438 5.87057 2.17313 8.31369L2.16375 8.36682L2.1625 8.37182ZM4.0525 15.3656C5.565 12.9393 7.80875 11.0912 10.4719 10.1106L10.56 10.0824C10.6656 10.0474 10.7706 10.0168 10.8763 9.98869C10.6731 9.53182 10.4544 9.07744 10.2263 8.62994C7.79625 9.35119 5.00438 9.76682 2.11563 9.76682C2.07438 9.76682 2.03375 9.76682 1.99313 9.76682H1.99938L1.99625 10.0106C1.99625 10.0124 1.99625 10.0143 1.99625 10.0162C1.99625 12.0768 2.7775 13.9549 4.05938 15.3712L4.05313 15.3643L4.0525 15.3656ZM13.1281 17.3806C12.7019 15.0687 12.1094 13.0324 11.3388 11.0868L11.4175 11.3124L11.3663 11.3281C8.67 12.1693 6.475 13.9481 5.115 16.2749L5.08688 16.3268C6.4275 17.3818 8.14 18.0187 10.0013 18.0187C11.1294 18.0187 12.2025 17.7849 13.175 17.3631L13.1231 17.3831L13.1281 17.3806ZM17.9038 11.2824C16.9219 10.9862 15.7938 10.8156 14.6256 10.8156C14.0231 10.8156 13.4313 10.8612 12.8531 10.9487L12.9181 10.9406C13.5306 12.5431 14.0694 14.4587 14.4406 16.4337L14.4744 16.6487C16.2706 15.4237 17.5325 13.5281 17.9006 11.3299L17.9069 11.2831L17.9038 11.2824ZM10 19.3724C4.82375 19.3724 0.627502 15.1762 0.627502 9.99994C0.627502 4.82369 4.82375 0.627441 10 0.627441C15.1763 0.627441 19.3725 4.82369 19.3725 9.99994C19.3656 15.1731 15.1731 19.3649 10 19.3724Z" fill="white"/>
</g>
<defs>
<clipPath id="clip0_32_96">
<rect width="20" height="20" fill="white"/>
</clipPath>
</defs>
</svg>
