<svg width="20" height="20" viewBox="0 0 20 20" fill="none" xmlns="http://www.w3.org/2000/svg">
<g clip-path="url(#clip0_32_107)">
<path fill-rule="evenodd" clip-rule="evenodd" d="M16.6667 0.833496C18.0474 0.833496 19.1667 1.95279 19.1667 3.3335V16.6668C19.1667 18.0476 18.0474 19.1668 16.6667 19.1668H3.33334C1.95264 19.1668 0.833344 18.0476 0.833344 16.6668V3.3335C0.833344 1.95279 1.95264 0.833496 3.33334 0.833496H16.6667ZM16.6667 2.50016C17.1269 2.50016 17.5 2.87326 17.5 3.3335V16.6668C17.5 17.1271 17.1269 17.5002 16.6667 17.5002H12.5V11.6667H14.2302C14.5888 11.6667 14.9073 11.4372 15.0208 11.0969L15.3899 9.98941C15.5248 9.58466 15.2236 9.16675 14.797 9.16675H12.5V7.5001C12.5 7.08343 12.9167 6.66676 13.3333 6.66676H15C15.4603 6.66676 15.8333 6.29366 15.8333 5.83343V5.26177C15.8333 4.99259 15.6614 4.75125 15.4011 4.68255C14.3088 4.39429 13.3333 4.39429 13.3333 4.39429C11.25 4.39429 10 5.83343 10 7.08343V9.16675H8.33334C7.87311 9.16675 7.50001 9.53983 7.50001 10.0001V10.8334C7.50001 11.2937 7.8731 11.6667 8.33334 11.6667H10V17.5002H3.33334C2.87311 17.5002 2.50001 17.1271 2.50001 16.6668V3.3335C2.50001 2.87326 2.87311 2.50016 3.33334 2.50016H16.6667Z" fill="white"/>
</g>
<defs>
<clipPath id="clip0_32_107">
<rect width="20" height="20" fill="white"/>
</clipPath>
</defs>
</svg>
