<svg width="286" height="326" viewBox="0 0 286 326" fill="none" xmlns="http://www.w3.org/2000/svg">
<g filter="url(#filter0_d_28_21)">
<path d="M143 101H123C111.954 101 103 109.954 103 121C103 132.046 111.954 141 123 141M143 101V141M143 101H163C174.046 101 183 109.954 183 121C183 132.046 174.046 141 163 141M123 141H143M123 141C111.954 141 103 149.954 103 161C103 172.046 111.954 181 123 181M143 141H163M143 141V181M163 141C174.046 141 183 149.954 183 161C183 172.046 174.046 181 163 181C151.954 181 143 172.046 143 161C143 149.954 151.954 141 163 141ZM143 181H123M143 181V201C143 212.046 134.046 221 123 221C111.954 221 103 212.046 103 201C103 189.954 111.954 181 123 181" stroke="white" stroke-width="5" stroke-linecap="round" stroke-linejoin="round"/>
</g>
<defs>
<filter id="filter0_d_28_21" x="-6" y="-1" width="307" height="328" filterUnits="userSpaceOnUse" color-interpolation-filters="sRGB">
<feFlood flood-opacity="0" result="BackgroundImageFix"/>
<feColorMatrix in="SourceAlpha" type="matrix" values="0 0 0 0 0 0 0 0 0 0 0 0 0 0 0 0 0 0 127 0" result="hardAlpha"/>
<feOffset dy="2"/>
<feGaussianBlur stdDeviation="50"/>
<feColorMatrix type="matrix" values="0 0 0 0 1 0 0 0 0 1 0 0 0 0 1 0 0 0 0.4 0"/>
<feBlend mode="normal" in2="BackgroundImageFix" result="effect1_dropShadow_28_21"/>
<feBlend mode="normal" in="SourceGraphic" in2="effect1_dropShadow_28_21" result="shape"/>
</filter>
</defs>
</svg>
