<svg width="130" height="130" viewBox="0 0 130 130" fill="none" xmlns="http://www.w3.org/2000/svg">
<g clip-path="url(#clip0_21_325)">
<path fill-rule="evenodd" clip-rule="evenodd" d="M65 0C100.899 0 130 29.8345 130 66.644C130 96.0825 111.397 121.056 85.5855 129.876C82.29 130.533 81.12 128.452 81.12 126.677C81.12 124.48 81.198 117.304 81.198 108.386C81.198 102.172 79.118 98.1166 76.7845 96.0496C91.26 94.3986 106.47 88.7625 106.47 63.1655C106.47 55.8855 103.948 49.9448 99.775 45.2778C100.451 43.5943 102.68 36.8157 99.138 27.6377C99.138 27.6377 93.691 25.8519 81.2825 34.4709C76.089 32.9954 70.525 32.2531 65 32.2271C59.475 32.2531 53.9175 32.9954 48.7305 34.4709C36.309 25.8519 30.849 27.6377 30.849 27.6377C27.3195 36.8157 29.549 43.5943 30.2185 45.2778C26.065 49.9448 23.5235 55.8855 23.5235 63.1655C23.5235 88.6975 38.701 94.42 53.1375 96.1035C51.2785 97.7675 49.595 100.703 49.01 105.012C45.305 106.715 35.893 109.663 30.095 99.4773C30.095 99.4773 26.6565 93.074 20.1305 92.606C20.1305 92.606 13.793 92.5218 19.6885 96.6558C19.6885 96.6558 23.946 98.7033 26.9035 106.406C26.9035 106.406 30.719 118.301 48.802 114.271C48.8345 119.841 48.893 125.091 48.893 126.677C48.893 128.439 47.697 130.5 44.4535 129.883C18.6225 121.075 0 96.089 0 66.644C0 29.8345 29.107 0 65 0Z" fill="white"/>
</g>
<defs>
<clipPath id="clip0_21_325">
<rect width="130" height="130" fill="white"/>
</clipPath>
</defs>
</svg>
