<svg width="292" height="330" viewBox="0 0 292 330" fill="none" xmlns="http://www.w3.org/2000/svg">
<g filter="url(#filter0_d_26_9)">
<path d="M108.592 98.1272H114.44V103.905H119.789V98.1272H125.638V115.624H119.79V109.764H114.44V115.624H108.592V98.1272H108.592ZM133.328 103.929H128.18V98.1272H144.327V103.929H139.176V115.624H133.328V103.929H133.328ZM146.889 98.1272H152.988L156.738 104.275L160.486 98.1272H166.585V115.624H160.761V106.952L156.738 113.172H156.638L152.612 106.952V115.624H146.889V98.1272ZM169.496 98.1272H175.346V109.841H183.57V115.624H169.496V98.1272ZM100.04 123.626L108.405 217.452L145.943 227.873L183.586 217.437L191.96 123.625L100.04 123.626ZM174.511 145.892L173.987 151.726L173.757 154.313H173.719H146H145.96H129.721L130.773 166.096H145.96H146H169.608H172.709L172.429 169.186L169.724 199.482L169.551 201.425L146 207.953V207.955L145.947 207.97L122.375 201.426L120.762 183.357H126.087H132.314L133.134 192.535L145.949 195.996L145.96 195.993V195.992L158.795 192.529L160.13 177.604H146H145.96H120.248L117.42 145.892L117.145 142.805H145.96H146H174.786L174.511 145.892Z" fill="white"/>
</g>
<defs>
<filter id="filter0_d_26_9" x="-19" y="0" width="330" height="330" filterUnits="userSpaceOnUse" color-interpolation-filters="sRGB">
<feFlood flood-opacity="0" result="BackgroundImageFix"/>
<feColorMatrix in="SourceAlpha" type="matrix" values="0 0 0 0 0 0 0 0 0 0 0 0 0 0 0 0 0 0 127 0" result="hardAlpha"/>
<feOffset dy="2"/>
<feGaussianBlur stdDeviation="50"/>
<feColorMatrix type="matrix" values="0 0 0 0 1 0 0 0 0 1 0 0 0 0 1 0 0 0 0.4 0"/>
<feBlend mode="normal" in2="BackgroundImageFix" result="effect1_dropShadow_26_9"/>
<feBlend mode="normal" in="SourceGraphic" in2="effect1_dropShadow_26_9" result="shape"/>
</filter>
</defs>
</svg>
