<svg width="226" height="148" viewBox="0 0 226 148" fill="none" xmlns="http://www.w3.org/2000/svg">
<g filter="url(#filter0_d_43_46)">
<path d="M50.2043 93.3787H72.9759V90.1125H50.2043V93.3787ZM50.2043 87.1435H72.9759V83.8815H50.2043V87.1435ZM56.7116 80.9083H66.4727V77.6421H56.7116V80.9083ZM56.7116 74.6732H66.4727V71.4111H56.7116V74.6732ZM56.7116 68.4463H66.4727V65.1801H56.7116V68.4463ZM56.7116 62.2153H66.4727V58.9491H56.7116V62.2153ZM50.2043 55.9802H72.9759V52.7139H50.2043V55.9802ZM50.2043 49.7492H72.9759V46.4829H50.2043V49.7492ZM76.2254 87.1477H110.94C111.488 86.2097 111.941 85.121 112.23 83.9694L112.246 83.8815H76.2296L76.2254 87.1477ZM108.218 71.4195H82.7328V74.6857H110.931C110.194 73.4169 109.29 72.3407 108.23 71.4362L108.214 71.4237L108.218 71.4195ZM82.7328 65.1843V68.4505H108.218C109.29 67.5293 110.194 66.4531 110.902 65.2429L110.936 65.1843H82.7328ZM110.94 52.7223H76.2296V55.9885H112.255C111.949 54.7532 111.497 53.6645 110.915 52.6637L110.948 52.7223H110.94ZM100.178 46.4871H76.2254V49.7533H108.565C106.371 47.7308 103.432 46.4871 100.199 46.4871C100.195 46.4871 100.186 46.4871 100.182 46.4871H100.178ZM82.7369 62.2153H92.498V58.9491H82.7369V62.2153ZM101.664 62.2153H112.171C112.443 61.2355 112.602 60.1132 112.606 58.9533H101.664V62.2153ZM82.7369 80.9083H92.498V77.6421H82.7369V80.9083ZM101.66 77.6463V80.9125H112.606C112.602 79.7484 112.447 78.6262 112.15 77.5583L112.171 77.6463H101.66ZM76.2296 93.3452L100.186 93.3787C100.195 93.3787 100.203 93.3787 100.216 93.3787C103.444 93.3787 106.384 92.1392 108.578 90.1041L108.57 90.1125H76.2296V93.3452ZM141.291 93.3745L142.426 90.1083H140.164L141.291 93.3745ZM139.122 87.1394H143.464L144.603 83.8773H137.978L139.122 87.1394ZM136.944 80.9042H145.642L146.781 77.6421H135.801L136.944 80.9042ZM134.762 74.6774H147.823L148.962 71.4111H133.619L134.762 74.6774ZM121.777 62.207H139.356L138.226 58.9449H121.777V62.207ZM145.399 55.9802H167.324V52.7139H146.529L145.399 55.9802ZM148.69 46.4829L147.559 49.7492H167.32V46.4829H148.69ZM115.27 93.3745H131.534V90.1083H115.27V93.3745ZM115.27 87.1394H131.534V83.8773H115.27V87.1394ZM121.777 80.9042H131.538V77.6463H121.777V80.9042ZM121.777 74.6774H131.538V71.4111H121.777V74.6774ZM160.813 58.9491H144.373L143.238 62.2153H160.817L160.813 58.9491ZM151.06 68.4463H160.813V65.1801H142.212L141.295 67.8182L140.378 65.1801H121.777V68.4463H131.538V65.4439L132.585 68.4463H150.009L151.056 65.4439L151.06 68.4463ZM151.06 74.6774H160.813V71.4111H151.052L151.06 74.6774ZM151.06 80.9083H160.813V77.6421H151.052L151.06 80.9083ZM151.06 87.1352H167.32V83.8773H151.056L151.06 87.1352ZM151.06 93.3745H167.32V90.1083H151.056L151.06 93.3745ZM137.191 55.976L136.061 52.7139H115.27V55.9802L137.191 55.976ZM135.03 49.7492L133.9 46.4829H115.27V49.7492H135.03ZM170.825 90.9458C170.863 89.5974 171.964 88.517 173.321 88.517C174.699 88.517 175.817 89.6351 175.817 91.0128C175.817 92.3905 174.699 93.5085 173.321 93.5085C172.617 93.5085 171.985 93.2196 171.529 92.7506C171.093 92.3025 170.825 91.687 170.825 91.0128C170.825 90.9877 170.825 90.9667 170.825 90.9416V90.9458ZM175.21 91.1049V90.7825C175.21 89.7314 174.359 88.8814 173.308 88.8814C172.257 88.8814 171.407 89.7314 171.407 90.7825V91.1049C171.407 92.156 172.257 93.006 173.308 93.006C174.359 93.006 175.21 92.156 175.21 91.1049ZM172.936 92.2648H172.303V89.6602H173.48C173.509 89.656 173.543 89.656 173.576 89.656C174.012 89.656 174.364 90.0078 174.364 90.4433C174.364 90.4558 174.364 90.4726 174.364 90.4852C174.368 90.5061 174.368 90.5312 174.368 90.5605C174.368 90.8788 174.175 91.151 173.899 91.2682L174.477 92.2607H173.782L173.3 91.3729H172.936V92.2648ZM173.409 90.8955C173.606 90.8955 173.723 90.8076 173.723 90.6192V90.4307C173.723 90.2465 173.61 90.1585 173.409 90.1585H172.94V90.8913L173.409 90.8955Z" fill="white"/>
</g>
<defs>
<filter id="filter0_d_43_46" x="-4" y="-43" width="234" height="234" filterUnits="userSpaceOnUse" color-interpolation-filters="sRGB">
<feFlood flood-opacity="0" result="BackgroundImageFix"/>
<feColorMatrix in="SourceAlpha" type="matrix" values="0 0 0 0 0 0 0 0 0 0 0 0 0 0 0 0 0 0 127 0" result="hardAlpha"/>
<feOffset dy="4"/>
<feGaussianBlur stdDeviation="25"/>
<feColorMatrix type="matrix" values="0 0 0 0 1 0 0 0 0 1 0 0 0 0 1 0 0 0 0.8 0"/>
<feBlend mode="normal" in2="BackgroundImageFix" result="effect1_dropShadow_43_46"/>
<feBlend mode="normal" in="SourceGraphic" in2="effect1_dropShadow_43_46" result="shape"/>
</filter>
</defs>
</svg>
