<svg width="330" height="330" viewBox="0 0 330 330" fill="none" xmlns="http://www.w3.org/2000/svg">
<g clip-path="url(#clip0_26_15)" filter="url(#filter0_d_26_15)">
<path fill-rule="evenodd" clip-rule="evenodd" d="M199.632 217.809C190.962 217.809 184.635 214.649 180.538 210.001C178.44 207.621 179.529 204.086 182.274 202.496C185.085 200.868 188.54 201.961 191.012 204.069C193.127 205.873 195.784 206.986 199.372 206.986C204.429 206.986 207.659 204.456 207.659 200.965C207.659 195.713 200.652 193.661 195.706 191.542C186.892 187.792 181.042 183.079 181.042 173.128C181.042 163.969 188.023 156.989 198.937 156.989C204.863 156.989 209.524 158.565 213.182 162.458C215.227 164.633 214.332 168.021 211.821 169.634C209.093 171.386 205.677 170.031 202.817 168.504C201.692 167.904 200.425 167.634 198.937 167.634C195.355 167.634 193.087 169.903 193.087 172.867C193.087 176.533 195.355 178.016 200.594 180.285C211.573 184.991 219.879 188.688 219.879 200.791C219.879 211.789 211.241 217.809 199.632 217.809ZM171.5 199.394C171.5 212.05 163.706 218.739 152.884 218.739C143.153 218.739 137.305 215.034 134.412 208.589C134.388 208.535 134.334 208.5 134.275 208.5H134.229C134.221 208.5 134.218 208.49 134.224 208.485L141.582 203.342C142.954 202.383 144.803 202.853 145.803 204.194C147.249 206.135 148.986 207.364 151.974 207.364C155.991 207.364 158.5 205.33 158.5 199.226V163C158.5 159.41 161.41 156.5 165 156.5C168.59 156.5 171.5 159.41 171.5 163V199.394ZM100 208C100 219.046 108.954 228 120 228H210C221.046 228 230 219.046 230 208V118C230 106.954 221.046 98 210 98H120C108.954 98 100 106.954 100 118V208Z" fill="white"/>
</g>
<defs>
<filter id="filter0_d_26_15" x="0" y="0" width="330" height="330" filterUnits="userSpaceOnUse" color-interpolation-filters="sRGB">
<feFlood flood-opacity="0" result="BackgroundImageFix"/>
<feColorMatrix in="SourceAlpha" type="matrix" values="0 0 0 0 0 0 0 0 0 0 0 0 0 0 0 0 0 0 127 0" result="hardAlpha"/>
<feOffset dy="2"/>
<feGaussianBlur stdDeviation="50"/>
<feColorMatrix type="matrix" values="0 0 0 0 1 0 0 0 0 1 0 0 0 0 1 0 0 0 0.4 0"/>
<feBlend mode="normal" in2="BackgroundImageFix" result="effect1_dropShadow_26_15"/>
<feBlend mode="normal" in="SourceGraphic" in2="effect1_dropShadow_26_15" result="shape"/>
</filter>
<clipPath id="clip0_26_15">
<rect width="130" height="130" fill="white" transform="translate(100 98)"/>
</clipPath>
</defs>
</svg>
