<svg width="256" height="156" viewBox="0 0 256 156" fill="none" xmlns="http://www.w3.org/2000/svg">
<g filter="url(#filter0_d_42_41)">
<path d="M117.347 80.8794H127.695L122.287 72.0784L112.244 87.9839H107.61L119.817 68.8349C120.135 68.5229 120.493 68.2434 120.87 68.0029L120.896 67.9899C121.279 67.7494 121.747 67.6064 122.248 67.6064H122.287C122.748 67.6129 123.177 67.7559 123.535 67.9964L123.528 67.9899C123.938 68.2434 124.289 68.5229 124.607 68.8349L136.814 87.9839H132.18L130.015 84.4349H119.667L117.347 80.8794ZM164.608 84.4349V67.9119H160.747V85.9819V86.0404C160.747 86.3004 160.806 86.5474 160.91 86.7684L160.903 86.7554C161.027 86.9959 161.183 87.1974 161.365 87.3729C161.475 87.5874 161.657 87.7499 161.878 87.8344C162.125 87.9319 162.411 87.9904 162.71 87.9904H162.73H180.338L182.503 84.4414L164.608 84.4349ZM100.817 81.3409H100.915C102.741 81.3409 104.399 80.6064 105.608 79.4104C106.843 78.2599 107.616 76.6219 107.616 74.8019C107.616 74.7629 107.616 74.7304 107.616 74.6914C107.616 74.6394 107.616 74.5809 107.616 74.5159C107.616 72.6764 106.843 71.0124 105.608 69.8359C104.405 68.6399 102.748 67.9054 100.915 67.9054C100.882 67.9054 100.843 67.9054 100.811 67.9054H83.8195V87.9839H87.7V71.4609H100.518H100.616C101.487 71.4609 102.267 71.8184 102.832 72.3904C103.404 72.9559 103.762 73.7424 103.762 74.6069V74.7109V74.7044C103.755 75.5754 103.404 76.3684 102.838 76.9469C102.286 77.5644 101.48 77.9544 100.59 77.9544C100.564 77.9544 100.538 77.9544 100.518 77.9544H89.5395L101.123 87.9969H106.68L98.9515 81.3539L100.817 81.3409ZM60.036 87.9839C60.023 87.9839 60.0035 87.9839 59.984 87.9839C57.254 87.9839 54.784 86.8594 53.016 85.0524C51.157 83.3039 50.0065 80.8339 50.0065 78.0909C50.0065 78.0389 50.0065 77.9869 50.0065 77.9349V77.9414C50.0065 77.9024 50.0065 77.8504 50.0065 77.7984C50.0065 75.0554 51.1635 72.5854 53.016 70.8434L53.0225 70.8369C54.797 69.0234 57.267 67.9054 59.997 67.9054H60.049H71.788H71.9505C74.674 67.9054 77.131 69.0299 78.8925 70.8369C80.706 72.5984 81.824 75.0554 81.824 77.7789V77.9479V78.0909C81.824 80.8209 80.693 83.2844 78.8795 85.0459C77.118 86.8594 74.661 87.9774 71.9375 87.9774C71.879 87.9774 71.8205 87.9774 71.7685 87.9774L60.036 87.9839ZM71.476 84.4349H71.632C73.3935 84.4349 74.986 83.6939 76.104 82.5044C77.248 81.3539 77.9565 79.7679 77.9565 78.0194C77.9565 77.9934 77.9565 77.9674 77.9565 77.9479V77.9544C77.9565 77.9024 77.9565 77.8374 77.9565 77.7789C77.9565 76.0369 77.248 74.4574 76.104 73.3199C74.9665 72.1759 73.387 71.4674 71.645 71.4674C71.5865 71.4674 71.5215 71.4674 71.463 71.4674H60.3415C60.322 71.4674 60.296 71.4674 60.27 71.4674C58.5215 71.4674 56.9355 72.1759 55.785 73.3199C54.5955 74.4444 53.8545 76.0369 53.8545 77.7984V77.9609V77.9544V77.9999C53.8545 79.7744 54.5955 81.3734 55.7785 82.5109C56.916 83.7004 58.515 84.4414 60.2895 84.4414H60.335L71.476 84.4349ZM144.842 87.9839C144.796 87.9839 144.738 87.9839 144.679 87.9839C141.956 87.9839 139.499 86.8594 137.737 85.0524C135.924 83.2909 134.806 80.8339 134.806 78.1104C134.806 78.0519 134.806 77.9934 134.806 77.9414C134.806 77.8959 134.806 77.8439 134.806 77.7854C134.806 75.0619 135.93 72.6049 137.737 70.8434C139.499 69.0299 141.956 67.9119 144.679 67.9119H144.848H144.842H158.739L156.418 71.4609H144.978C144.959 71.4609 144.933 71.4609 144.907 71.4609C143.158 71.4609 141.572 72.1694 140.422 73.3134C139.232 74.4379 138.491 76.0304 138.491 77.7919V77.9544V77.9479V77.9934C138.491 79.7679 139.232 81.3669 140.415 82.5044C141.553 83.6939 143.152 84.4349 144.926 84.4349H144.972H159.012L156.691 87.9839H144.842ZM191.947 84.4349C191.934 84.4349 191.915 84.4349 191.895 84.4349C190.439 84.4349 189.107 83.9084 188.073 83.0374L188.08 83.0439C187.001 82.1794 186.195 81.0289 185.772 79.6964L185.759 79.6444H202.282L204.447 76.0954H185.759C186.182 74.7434 186.981 73.6189 188.041 72.8064L188.054 72.7934C189.087 71.9744 190.413 71.4804 191.85 71.4804H191.921H203.355L205.675 67.9314H191.778C191.733 67.9314 191.674 67.9314 191.616 67.9314C188.892 67.9314 186.435 69.0559 184.674 70.8629C182.86 72.6244 181.742 75.0814 181.742 77.8049V77.9739V77.9674V78.1299C181.742 80.8534 182.867 83.3104 184.674 85.0719C186.435 86.8854 188.892 88.0034 191.616 88.0034H191.785H203.654L205.974 84.4544L191.947 84.4349Z" fill="white"/>
</g>
<defs>
<filter id="filter0_d_42_41" x="0" y="-46" width="256" height="256" filterUnits="userSpaceOnUse" color-interpolation-filters="sRGB">
<feFlood flood-opacity="0" result="BackgroundImageFix"/>
<feColorMatrix in="SourceAlpha" type="matrix" values="0 0 0 0 0 0 0 0 0 0 0 0 0 0 0 0 0 0 127 0" result="hardAlpha"/>
<feOffset dy="4"/>
<feGaussianBlur stdDeviation="25"/>
<feColorMatrix type="matrix" values="0 0 0 0 1 0 0 0 0 1 0 0 0 0 1 0 0 0 0.8 0"/>
<feBlend mode="normal" in2="BackgroundImageFix" result="effect1_dropShadow_42_41"/>
<feBlend mode="normal" in="SourceGraphic" in2="effect1_dropShadow_42_41" result="shape"/>
</filter>
</defs>
</svg>
