<svg width="330" height="330" viewBox="0 0 330 330" fill="none" xmlns="http://www.w3.org/2000/svg">
<g clip-path="url(#clip0_28_23)" filter="url(#filter0_d_28_23)">
<path d="M208.249 98.127H121.751C109.858 98.127 100.127 107.858 100.127 119.751V206.249C100.127 218.142 109.858 227.873 121.751 227.873H208.249C220.142 227.873 229.873 218.142 229.873 206.249V119.751C229.873 107.858 220.142 98.127 208.249 98.127ZM162.291 164.149C157.787 168.652 150.71 170.767 142.714 170.767C140.6 170.767 138.67 170.674 137.199 170.398V193.744H125.987V132.623C130.031 131.888 135.637 131.336 143.265 131.336C151.538 131.336 157.604 133.083 161.556 136.392C165.233 139.425 167.622 144.296 167.622 150.087C167.622 155.969 165.784 160.84 162.291 164.149ZM185.815 194.664C180.393 194.664 175.522 193.377 172.213 191.538L174.418 183.358C176.992 184.921 181.863 186.575 185.907 186.575C190.87 186.575 193.077 184.553 193.077 181.612C193.077 178.579 191.239 177.016 185.724 175.086C176.991 172.053 173.316 167.274 173.408 162.035C173.408 154.131 179.933 147.973 190.319 147.973C195.283 147.973 199.602 149.26 202.175 150.638L199.969 158.634C198.039 157.532 194.454 156.061 190.503 156.061C186.458 156.061 184.253 157.991 184.253 160.748C184.253 163.598 186.367 164.977 192.065 166.999C200.153 169.939 203.922 174.075 204.014 180.693C204.013 188.781 197.672 194.664 185.815 194.664ZM156.316 150.546C156.316 157.807 151.169 161.943 142.714 161.943C140.416 161.943 138.578 161.851 137.199 161.484V140.528C138.394 140.252 140.6 139.977 143.725 139.977C151.538 139.977 156.316 143.653 156.316 150.546Z" fill="white"/>
</g>
<defs>
<filter id="filter0_d_28_23" x="0" y="0" width="330" height="330" filterUnits="userSpaceOnUse" color-interpolation-filters="sRGB">
<feFlood flood-opacity="0" result="BackgroundImageFix"/>
<feColorMatrix in="SourceAlpha" type="matrix" values="0 0 0 0 0 0 0 0 0 0 0 0 0 0 0 0 0 0 127 0" result="hardAlpha"/>
<feOffset dy="2"/>
<feGaussianBlur stdDeviation="50"/>
<feColorMatrix type="matrix" values="0 0 0 0 1 0 0 0 0 1 0 0 0 0 1 0 0 0 0.4 0"/>
<feBlend mode="normal" in2="BackgroundImageFix" result="effect1_dropShadow_28_23"/>
<feBlend mode="normal" in="SourceGraphic" in2="effect1_dropShadow_28_23" result="shape"/>
</filter>
<clipPath id="clip0_28_23">
<rect width="130" height="130" fill="white" transform="translate(100 98)"/>
</clipPath>
</defs>
</svg>
