<svg width="20" height="14" viewBox="0 0 20 14" fill="none" xmlns="http://www.w3.org/2000/svg">
<path d="M5.90909 5.45404C6.3913 5.45404 6.85376 5.2625 7.19474 4.92155C7.53571 4.58061 7.72727 4.11819 7.72727 3.63602C7.72727 3.15386 7.53571 2.69144 7.19474 2.3505C6.85376 2.00955 6.3913 1.81801 5.90909 1.81801H1.81818V5.45404H5.90909ZM6.81818 7.27205H1.81818V10.9081H6.81818C7.30039 10.9081 7.76286 10.7165 8.10383 10.3756C8.44481 10.0346 8.63636 9.57223 8.63636 9.09006C8.63636 8.60789 8.44481 8.14547 8.10383 7.80453C7.76286 7.46359 7.30039 7.27205 6.81818 7.27205ZM8.69364 5.97399C9.37503 6.38367 9.90336 7.00537 10.1977 7.74389C10.4921 8.48241 10.5363 9.29705 10.3235 10.0631C10.1107 10.8291 9.65274 11.5043 9.01965 11.9852C8.38656 12.4662 7.61327 12.7264 6.81818 12.7261H0V0H5.90909C6.60134 8.04116e-05 7.27919 0.197736 7.86297 0.569738C8.44674 0.94174 8.9122 1.47263 9.20464 2.10002C9.49707 2.72741 9.60433 3.42523 9.51381 4.11147C9.42329 4.79772 9.13875 5.44387 8.69364 5.97399ZM13.1818 0.909006H18.1818V2.27251H13.1818V0.909006ZM20 8.63556H13.1818V8.86281C13.1816 9.42433 13.3705 9.96958 13.718 10.4107C14.0655 10.8518 14.5515 11.163 15.0975 11.2942C15.6435 11.4255 16.2178 11.3691 16.7279 11.1341C17.2379 10.8992 17.654 10.4993 17.9091 9.99907H19.8491C19.5721 11.0065 18.9394 11.8794 18.068 12.4561C17.1967 13.0328 16.1459 13.2741 15.1102 13.1354C14.0746 12.9967 13.1243 12.4874 12.4354 11.7018C11.7465 10.9162 11.3658 9.90761 11.3636 8.86281V7.4993C11.3636 6.35415 11.8186 5.25591 12.6284 4.44617C13.4382 3.63643 14.5366 3.18152 15.6818 3.18152C16.8271 3.18152 17.9254 3.63643 18.7352 4.44617C19.545 5.25591 20 6.35415 20 7.4993V8.63556ZM18.0873 6.81754C17.9387 6.29403 17.6234 5.83326 17.1892 5.50517C16.755 5.17707 16.2256 4.99956 15.6814 4.99956C15.1371 4.99956 14.6077 5.17707 14.1735 5.50517C13.7393 5.83326 13.424 6.29403 13.2755 6.81754H18.0873Z" fill="white"/>
</svg>
