<svg width="20" height="19" viewBox="0 0 20 19" fill="none" xmlns="http://www.w3.org/2000/svg">
<path fill-rule="evenodd" clip-rule="evenodd" d="M7.429 6.58887H11.143V8.33796C11.678 7.332 13.05 6.42815 15.111 6.42815C19.062 6.42815 20 8.43062 20 12.1047V18.9091H16V12.9414C16 10.8491 15.465 9.66916 14.103 9.66916C12.214 9.66916 11.429 10.9408 11.429 12.9404V18.9091H7.429V6.58887ZM0.57 18.7484H4.57V6.42815H0.57V18.7484ZM5.143 2.41091C5.14315 2.7279 5.07666 3.04175 4.94739 3.33423C4.81812 3.62671 4.62865 3.89198 4.39 4.11462C3.9064 4.56903 3.25181 4.82338 2.57 4.82182C1.88939 4.82139 1.23631 4.56768 0.752 4.11556C0.514211 3.89216 0.325386 3.6266 0.196344 3.33408C0.0673015 3.04156 0.000579132 2.72785 0 2.41091C0 1.77084 0.27 1.15818 0.753 0.706255C1.23689 0.253532 1.89024 -0.00028289 2.571 2.36614e-07C3.253 2.36614e-07 3.907 0.254327 4.39 0.706255C4.872 1.15818 5.143 1.77084 5.143 2.41091Z" fill="white"/>
</svg>
