<svg width="110" height="104" viewBox="0 0 110 104" fill="none" xmlns="http://www.w3.org/2000/svg">
<path fill-rule="evenodd" clip-rule="evenodd" d="M40.8595 36.2388H61.2865V45.8588C64.229 40.326 71.775 35.3548 83.1105 35.3548C104.841 35.3548 110 46.3684 110 66.5756V104H88V71.1776C88 59.67 85.0575 53.1804 77.5665 53.1804C67.177 53.1804 62.8595 60.1744 62.8595 71.1724V104H40.8595V36.2388ZM3.135 103.116H25.135V35.3548H3.135V103.116ZM28.2865 13.26C28.2873 15.0034 27.9216 16.7296 27.2106 18.3383C26.4997 19.9469 25.4576 21.4059 24.145 22.6304C21.4852 25.1296 17.885 26.5286 14.135 26.52C10.3916 26.5176 6.79971 25.1222 4.136 22.6356C2.82816 21.4069 1.78962 19.9463 1.07989 18.3374C0.370158 16.7286 0.00318522 15.0032 0 13.26C0 9.7396 1.485 6.37 4.1415 3.8844C6.80287 1.39442 10.3963 -0.0015559 14.1405 1.30138e-06C17.8915 1.30138e-06 21.4885 1.3988 24.145 3.8844C26.796 6.37 28.2865 9.7396 28.2865 13.26Z" fill="white"/>
</svg>
