<svg width="167" height="110" viewBox="0 0 167 110" fill="none" xmlns="http://www.w3.org/2000/svg">
<path d="M49.3409 45.5412C53.3674 45.5412 57.2289 43.9418 60.0761 41.095C62.9232 38.2481 64.5227 34.3869 64.5227 30.3608C64.5227 26.3347 62.9232 22.4735 60.0761 19.6266C57.2289 16.7798 53.3674 15.1804 49.3409 15.1804H15.1818V45.5412H49.3409ZM56.9318 60.7216H15.1818V91.0824H56.9318C60.9583 91.0824 64.8198 89.483 67.667 86.6362C70.5141 83.7893 72.1136 79.9281 72.1136 75.902C72.1136 71.8759 70.5141 68.0147 67.667 65.1678C64.8198 62.321 60.9583 60.7216 56.9318 60.7216ZM72.5919 49.8828C78.2815 53.3037 82.693 58.4948 85.151 64.6615C87.6089 70.8282 87.9779 77.6304 86.2012 84.0267C84.4246 90.4229 80.6004 96.0607 75.3141 100.077C70.0278 104.093 63.5708 106.266 56.9318 106.263H0V0H49.3409C55.1212 0.000671437 60.7812 1.65109 65.6558 4.75731C70.5303 7.86353 74.4169 12.2965 76.8587 17.5352C79.3005 22.7739 80.1962 28.6007 79.4403 34.3308C78.6845 40.0609 76.3086 45.4563 72.5919 49.8828ZM110.068 7.5902H151.818V18.9755H110.068V7.5902ZM167 72.1069H110.068V74.0044C110.066 78.6932 111.644 83.246 114.545 86.9291C117.447 90.6122 121.505 93.2111 126.064 94.3069C130.623 95.4028 135.419 94.9319 139.678 92.97C143.937 91.008 147.411 87.6694 149.541 83.4922H165.74C163.427 91.9042 158.144 99.193 150.868 104.008C143.592 108.823 134.818 110.839 126.17 109.681C117.523 108.523 109.588 104.27 103.836 97.7103C98.0835 91.1506 94.9041 82.7285 94.8864 74.0044V62.6191C94.8864 53.0572 98.6852 43.8868 105.447 37.1255C112.209 30.3642 121.38 26.5657 130.943 26.5657C140.506 26.5657 149.677 30.3642 156.439 37.1255C163.201 43.8868 167 53.0572 167 62.6191V72.1069ZM151.029 56.9265C149.788 52.5551 147.155 48.7077 143.53 45.9682C139.904 43.2285 135.484 41.7463 130.939 41.7463C126.395 41.7463 121.975 43.2285 118.349 45.9682C114.724 48.7077 112.091 52.5551 110.85 56.9265H151.029Z" fill="white"/>
</svg>
