<svg width="82" height="116" viewBox="0 0 82 116" fill="none" xmlns="http://www.w3.org/2000/svg">
<path d="M72.1808 38.296C76.0071 35.8731 78.9366 32.29 80.5307 28.083C82.1249 23.8761 82.2978 19.2718 81.0237 14.9595C79.7495 10.6472 77.0968 6.85909 73.4628 4.1623C69.8288 1.46551 65.4091 0.00518554 60.8653 0H21.0262C16.4825 0.00518554 12.0627 1.46551 8.42873 4.1623C4.79474 6.85909 2.14205 10.6472 0.8679 14.9595C-0.406255 19.2718 -0.233317 23.8761 1.36082 28.083C2.95495 32.29 5.8845 35.8731 9.71079 38.296C6.67294 40.2189 4.1865 42.8822 2.49051 46.0298C0.794529 49.1774 -0.0539604 52.7035 0.0266212 56.269C0.107203 59.8346 1.11414 63.3196 2.95064 66.3892C4.78713 69.4588 7.39141 72.0096 10.5131 73.7964C7.14521 75.9758 4.40755 78.9827 2.56826 82.5226C0.728961 86.0625 -0.148908 90.014 0.0206266 93.9902C0.190161 97.9664 1.40129 101.831 3.53539 105.205C5.66949 108.579 8.65339 111.348 12.1948 113.239C15.7363 115.131 19.7139 116.08 23.738 115.995C27.7622 115.909 31.6949 114.792 35.1511 112.752C38.6072 110.712 41.4683 107.82 43.454 104.358C45.4398 100.897 46.4821 96.9843 46.479 93.0046V70.9461C48.6065 72.9479 51.1345 74.4868 53.9002 75.4636C56.6659 76.4405 59.6079 76.8337 62.5367 76.6179C65.4655 76.402 68.316 75.5819 70.9047 74.2104C73.4933 72.839 75.7627 70.9465 77.5665 68.655C79.3704 66.3635 80.6687 63.7238 81.3778 60.9059C82.087 58.0881 82.1912 55.1546 81.6838 52.2944C81.1764 49.4343 80.0687 46.711 78.4319 44.3C76.7952 41.889 74.6657 39.8437 72.1808 38.296ZM75.2517 20.7893C75.2517 24.5618 73.736 28.1797 71.038 30.8473C68.3401 33.5149 64.6808 35.0135 60.8653 35.0135H46.479V6.56503H60.8653C64.6808 6.56503 68.3401 8.06365 71.038 10.7312C73.736 13.3988 75.2517 17.0168 75.2517 20.7893ZM6.63985 20.7893C6.63985 17.0168 8.15555 13.3988 10.8535 10.7312C13.5515 8.06365 17.2107 6.56503 21.0262 6.56503H39.8391V35.0135H21.0262C17.2107 35.0135 13.5515 33.5149 10.8535 30.8473C8.15555 28.1797 6.63985 24.5618 6.63985 20.7893ZM21.0262 70.027C17.2107 70.027 13.5515 68.5284 10.8535 65.8608C8.15555 63.1932 6.63985 59.5753 6.63985 55.8027C6.63985 52.0303 8.15555 48.4123 10.8535 45.7447C13.5515 43.0771 17.2107 41.5785 21.0262 41.5785H39.8391V70.027H21.0262ZM39.8391 93.0046C39.8391 96.2507 38.8656 99.4239 37.0416 102.123C35.2176 104.822 32.6251 106.926 29.5919 108.168C26.5587 109.41 23.2211 109.735 20.0011 109.102C16.781 108.469 13.8233 106.905 11.5018 104.61C9.18027 102.315 7.59931 99.3903 6.95881 96.2065C6.31831 93.0228 6.64704 89.7228 7.90343 86.7238C9.15981 83.7248 11.2874 81.1615 14.0172 79.358C16.747 77.5546 19.9564 76.592 23.2395 76.592H39.8391V93.0046ZM60.8653 70.027C58.02 70.027 55.2385 69.1927 52.8727 67.6298C50.5069 66.0668 48.663 63.8453 47.5741 61.2461C46.4852 58.647 46.2003 55.787 46.7554 53.0277C47.3105 50.2685 48.6807 47.734 50.6926 45.7447C52.7046 43.7554 55.268 42.4007 58.0587 41.8518C60.8494 41.303 63.742 41.5847 66.3708 42.6613C68.9995 43.7379 71.2464 45.561 72.8272 47.9002C74.408 50.2394 75.2517 52.9895 75.2517 55.8027C75.2517 59.5753 73.736 63.1932 71.038 65.8608C68.3401 68.5284 64.6808 70.027 60.8653 70.027Z" fill="white"/>
</svg>
